<svg xmlns="http://www.w3.org/2000/svg" viewBox="0 0 128 128"><g fill="#61DAFB"><circle cx="64" cy="64" r="11.4"/><path d="M107.3 45.2c-2.2-.8-4.5-1.6-6.9-2.3.6-2.4 1.1-4.8 1.5-7.1 2.1-13.2-.2-22.5-6.6-26.1-1.9-1.1-4-1.6-6.4-1.6-7 0-15.9 5.2-24.9 13.9-9-8.7-17.9-13.9-24.9-13.9-2.4 0-4.5.5-6.4 1.6-6.4 3.7-8.7 13-6.6 26.1.4 2.3.9 4.7 1.5 7.1-2.4.7-4.7 1.4-6.9 2.3C16.2 50 12.2 56.6 12.2 64s4 14 12.5 18.8c2.2.8 4.5 1.6 6.9 2.3-.6 2.4-1.1 4.8-1.5 7.1-2.1 13.2.2 22.5 6.6 26.1 1.9 1.1 4 1.6 6.4 1.6 7.1 0 16-5.2 24.9-13.9 9 8.7 17.9 13.9 24.9 13.9 2.4 0 4.5-.5 6.4-1.6 6.4-3.7 8.7-13 6.6-26.1-.4-2.3-.9-4.7-1.5-7.1 2.4-.7 4.7-1.4 6.9-2.3 8.5-4.8 12.5-11.4 12.5-18.8s-4-14-12.5-18.8zM92.5 14.7c4.1 2.4 5.5 9.8 3.8 20.3-.3 2.1-.8 4.3-1.4 6.6-5.2-1.2-10.7-2-16.5-2.5-3.4-4.8-6.9-9.1-10.4-12.9 7.4-7.3 14.9-12.3 21-12.3 1.3 0 2.5.3 3.5.8zM81.3 74c-1.8 3.2-3.9 6.4-6.1 9.6-3.7.3-7.4.4-11.2.4-3.9 0-7.6-.1-11.2-.4-2.2-3.2-4.2-6.4-6-9.6-1.9-3.3-3.7-6.7-5.3-10 1.6-3.3 3.4-6.7 5.3-10 1.8-3.2 3.9-6.4 6.1-9.6 3.7-.3 7.4-.4 11.2-.4 3.9 0 7.6.1 11.2.4 2.2 3.2 4.2 6.4 6 9.6 1.9 3.3 3.7 6.7 5.3 10-1.7 3.3-3.4 6.6-5.3 10zm8.3-3.3c1.2 3.3 2.3 6.5 3.2 9.7-2.7 1.6-5.7 3-9 4.3 1.1-3.5 2.1-7.2 2.9-11 1-1 2-2 2.9-3zm-22.3 21.7c2.4-2.6 4.7-5.4 6.9-8.3-2.3.1-4.6.2-6.9.2-2.3 0-4.6-.1-6.9-.2 2.2 2.9 4.5 5.7 6.9 8.3zm-22.6-18c.8 3.8 1.8 7.5 2.9 11-3.3-1.3-6.3-2.7-9-4.3.9-3.2 2-6.4 3.2-9.7 1 1 2 2 2.9 3zm-2.9-26c-1.2-3.3-2.3-6.5-3.2-9.7 2.7-1.6 5.7-3 9-4.3-1.1 3.5-2.1 7.2-2.9 11-1 1-2 2-2.9 3zm22.3-21.7c-2.4 2.6-4.7 5.4-6.9 8.3 2.3-.1 4.6-.2 6.9-.2 2.3 0 4.6.1 6.9.2-2.2-2.9-4.5-5.7-6.9-8.3zM35.5 14.7c1-.5 2.2-.8 3.5-.8 6.1 0 13.6 5 21 12.3-3.5 3.8-7 8.1-10.4 12.9-5.8.5-11.3 1.3-16.5 2.5-.6-2.3-1.1-4.5-1.4-6.6-1.7-10.5-.3-17.9 3.8-20.3zM30 78.8c-2.4-.7-4.7-1.4-6.9-2.3C16.4 72.4 13.1 68.1 13.1 64s3.3-8.4 10-11.5c2.2-.9 4.5-1.6 6.9-2.3 1.5 4.7 3.4 9.6 5.7 14.6-2.3 5-4.2 9.8-5.7 14.5zm12.8 31.7c-4.1-2.4-5.5-9.8-3.8-20.3.3-2.1.8-4.3 1.4-6.6 5.2 1.2 10.7 2 16.5 2.5 3.4 4.8 6.9 9.1 10.4 12.9-7.4 7.3-14.9 12.3-21 12.3-1.3 0-2.5-.3-3.5-.8zm57-20.3c1.7 10.5.3 17.9-3.8 20.3-1 .5-2.2.8-3.5.8-6.1 0-13.6-5-21-12.3 3.5-3.8 7-8.1 10.4-12.9 5.8-.5 11.3-1.3 16.5-2.5.6 2.3 1.1 4.5 1.4 6.6zm5-15.4c-2.2.9-4.5 1.6-6.9 2.3-1.5-4.7-3.4-9.6-5.7-14.6 2.3-5 4.2-9.8 5.7-14.5 2.4.7 4.7 1.4 6.9 2.3 6.7 3.1 10 7.4 10 11.5s-3.3 8.4-10 11.5z"/></g></svg>
